<svg xmlns="http://www.w3.org/2000/svg" width="96" height="4" viewBox="0 0 96 4">
  <path fill="#555353" fill-rule="evenodd" d="M325.629513,379.518338 C325.629513,379.518338 328.851021,379.281678 329.509878,379.163348 L331.556147,379.163348 C332.190745,379.163348 327.606085,379.163348 327.606085,379.163348 C327.606085,379.163348 337.215542,379.117182 338.238677,379.117182 C339.261812,379.117182 341.454023,379.448739 341.89262,379.448739 L344.816082,379.448739 C345.619726,379.448739 346.643246,379.183283 347.885486,379.183283 C349.127727,379.183283 349.127727,379.050731 350.443131,379.050731 C351.758535,379.050731 350.808563,378.984279 352.4894,378.984279 C354.170237,378.984279 355.486026,379.050731 356.362833,379.050731 C357.239641,379.050731 362.063046,378.51947 363.670719,378.51947 C365.278392,378.51947 365.717374,378.718824 366.594181,378.718824 C367.470989,378.718824 376.664184,380.311557 379.294992,379.51519 C381.9258,378.718824 383.825742,380.178655 389.01458,379.448739 C394.203417,378.718824 395.690178,379.98 396.567371,379.98 C397.444563,379.98 401.844774,378.917828 402.721582,378.917828 L405.498717,378.917828 L410.687169,378.917828 C412.733439,378.917828 413.950265,378.718824 414.487439,378.718824 C415.024614,378.718824 416,378.207848 416,378.207848 C416,378.207848 415.806694,377.205832 413.581751,377.205832 C411.356809,377.205832 404.874902,377.02991 404.874902,377.02991 C404.874902,377.02991 397.884315,376.608469 396.835765,376.608469 C395.787216,376.608469 395.129899,376.343013 391.475571,376.343013 C387.821243,376.343013 382.194195,376.144009 382.194195,376.144009 C382.194195,376.144009 370.768356,376.409465 365.140922,376.409465 C359.513488,376.409465 348.431132,376.475916 346.870823,376.475916 L337.052272,376.475916 C330.402088,376.475916 329.134048,376.077558 329.134048,376.077558 C329.134048,376.077558 323.37569,376.144009 322.400304,376.144009 C321.424918,376.144009 321.081435,375.702283 320.423733,376.366096 C319.766031,377.02991 319.959722,378.689445 320.423733,378.689445 C320.887744,378.689445 322.740322,378.911532 322.740322,378.911532 L325.629513,379.518338 Z" transform="translate(-320 -376)"/>
</svg>
